<?xml version="1.0" standalone="no"?>
<!DOCTYPE svg PUBLIC "-//W3C//DTD SVG 20010904//EN"
 "http://www.w3.org/TR/2001/REC-SVG-20010904/DTD/svg10.dtd">
<svg version="1.0" xmlns="http://www.w3.org/2000/svg"
 height="100%" width="100%" viewBox="0 0 1000.000000 1080.000000"
 preserveAspectRatio="xMidYMid meet">
<metadata>
Created by potrace 1.16, written by Peter Selinger 2001-2019
</metadata>
<g transform="translate(0.000000,1080.000000) scale(0.100000,-0.100000)"
fill="#000000" stroke="none">
<path d="M5410 10120 l0 -109 -57 -3 -58 -3 0 -155 0 -155 58 -3 57 -3 0 -64
c0 -51 -3 -65 -15 -65 -12 0 -15 13 -15 55 l0 55 -155 0 -155 0 0 -55 0 -55
-55 0 -54 0 -3 -57 -3 -58 -57 -3 -58 -3 0 -109 0 -110 -55 0 -55 0 0 -215 0
-215 55 0 55 0 0 -1925 c0 -1277 -3 -1925 -10 -1925 -6 0 -10 27 -10 60 l0 60
-155 0 -154 0 -3 -57 c-2 -32 -7 -58 -13 -58 -5 0 -11 26 -13 58 l-3 57 -109
0 -110 0 0 55 0 55 -160 0 -160 0 0 -155 0 -154 112 -3 c78 -2 113 -7 116 -15
3 -10 -24 -13 -112 -13 l-116 0 0 -155 0 -154 58 -3 57 -3 3 -112 3 -113 54 0
55 0 0 -110 0 -110 55 0 55 0 0 -280 0 -280 55 0 55 0 0 -70 c0 -40 -4 -70
-10 -70 -5 0 -10 25 -10 55 l0 55 -155 0 -155 0 0 -155 0 -155 55 0 55 0 0
-71 c0 -52 -3 -70 -12 -67 -8 3 -14 26 -16 56 l-3 52 -155 0 -154 0 0 -155 0
-155 55 0 55 0 0 -70 c0 -40 -4 -70 -10 -70 -6 0 -10 27 -10 60 l0 60 -155 0
-155 0 0 -160 0 -160 55 0 55 0 0 -65 c0 -51 -3 -65 -15 -65 -12 0 -15 13 -15
55 l0 55 -155 0 -155 0 0 -155 0 -155 55 0 c42 0 55 -3 55 -15 0 -12 -13 -15
-55 -15 l-55 0 0 -55 0 -55 -110 0 -110 0 0 -215 0 -215 265 0 264 0 3 58 3
57 113 3 112 3 0 54 0 55 55 0 55 0 0 55 0 55 115 0 115 0 0 55 0 55 110 0
109 0 3 57 3 58 113 3 112 3 0 54 0 55 110 0 110 0 0 55 0 55 115 0 115 0 0
55 0 55 165 0 164 0 3 57 3 58 180 0 180 0 3 -57 3 -58 264 0 265 0 0 385 0
385 -55 0 -55 0 0 225 0 225 -55 0 -55 0 0 65 0 65 55 0 55 0 0 170 0 170 55
0 55 0 2 168 3 167 58 3 57 3 0 109 0 110 55 0 55 0 0 170 0 170 55 0 55 0 0
325 0 325 -55 0 -55 0 0 55 0 55 -215 0 -215 0 0 -165 0 -165 -55 0 -55 0 0
-60 c0 -77 -18 -79 -22 -2 l-3 57 -155 0 -155 0 -3 -57 -3 -58 -54 0 -55 0 0
-165 c0 -103 -4 -165 -10 -165 -7 0 -10 343 -10 1010 l0 1009 -55 3 c-30 2
-55 8 -55 13 0 6 25 11 55 13 l55 3 0 264 0 264 -57 3 -58 3 -3 518 -2 517 60
0 60 0 0 115 0 115 55 0 55 0 0 165 0 165 55 0 55 0 0 170 0 170 55 0 54 0 3
113 3 112 58 3 57 3 0 209 0 210 -325 0 -325 0 0 -110z m550 -100 l0 -110
-170 0 -170 0 0 -60 0 -61 -112 3 -113 3 0 55 0 55 58 3 57 3 0 109 0 110 225
0 225 0 0 -110z m-680 -505 l0 -55 -55 0 -55 0 0 -115 0 -115 55 0 55 0 0 55
0 55 55 0 54 0 3 58 3 57 55 0 55 0 3 -222 2 -222 -57 -3 -58 -3 -1 -2020 c-1
-1111 -2 -2149 -3 -2308 l-1 -287 -222 2 -223 3 -3 113 -3 112 -54 0 -55 0 0
55 0 55 55 0 55 0 0 1465 0 1465 53 0 54 0 5 163 c4 144 4 529 -1 845 l-1 112
-55 0 -55 0 0 55 0 55 -55 0 -55 0 0 115 0 115 55 0 55 0 0 55 0 55 60 0 60 0
0 115 0 115 55 0 55 0 0 55 0 55 55 0 55 0 0 -55z m-900 -4840 l0 -55 -55 0
-55 0 0 -54 0 -55 53 -3 52 -3 3 -112 3 -113 54 0 55 0 0 -55 0 -55 55 0 55 0
0 -55 0 -55 -55 0 -55 0 0 -112 0 -113 -52 1 -51 2 -1 48 c-1 27 -3 102 -4
167 l-2 117 -55 0 -55 0 0 110 0 110 -55 0 -55 0 0 115 0 115 -55 0 -55 0 0
55 0 55 165 0 165 0 0 -55z m1030 -395 c0 -6 -27 -10 -60 -10 l-60 0 0 -55 0
-55 -125 0 -125 0 0 65 0 65 185 0 c117 0 185 -4 185 -10z m-20 -445 l0 -225
-225 0 -225 0 0 218 c0 120 3 222 7 225 3 4 105 7 225 7 l218 0 0 -225z m0
-400 l0 -55 -225 0 -225 0 0 55 0 55 225 0 225 0 0 -55z m680 -670 l0 -55 55
0 56 0 -3 -57 -3 -58 -107 -2 -108 -1 0 59 0 59 -170 0 -170 0 0 55 0 55 225
0 225 0 0 -55z m-2480 -790 l0 -55 -55 0 -54 0 -3 -112 -3 -113 -107 -3 -108
-3 0 116 0 115 110 0 110 0 0 55 0 55 55 0 55 0 0 -55z"/>
<path d="M5060 9175 l0 -55 -60 0 -60 0 0 -55 0 -55 115 0 115 0 0 110 0 110
-55 0 -55 0 0 -55z"/>
<path d="M0 400 l0 -400 5000 0 5000 0 0 400 0 400 -5000 0 -5000 0 0 -400z
m1395 106 c25 -11 33 -19 29 -30 -7 -19 -5 -19 -40 -1 -36 18 -55 19 -78 2
-28 -21 -9 -45 49 -62 87 -25 108 -74 54 -127 -29 -29 -33 -30 -90 -25 -68 6
-72 8 -64 29 5 13 12 14 40 5 50 -15 100 1 100 33 0 16 -8 28 -25 36 -87 40
-105 51 -108 67 -14 70 53 106 133 73z m587 -48 l3 -62 36 32 c20 18 45 32 55
32 14 0 9 -9 -21 -40 l-39 -40 42 -60 c40 -57 41 -60 20 -60 -16 0 -32 14 -53
45 -16 25 -33 45 -37 45 -5 0 -8 -20 -8 -45 0 -38 -3 -45 -20 -45 -19 0 -20 7
-20 130 0 122 1 130 20 130 16 0 19 -8 22 -62z m-1353 -24 c12 -15 21 -40 21
-55 0 -29 0 -29 -65 -29 -72 0 -83 -12 -44 -51 17 -17 30 -20 65 -16 43 4 59
-5 28 -17 -45 -17 -106 3 -123 41 -45 98 56 206 118 127z m456 3 c20 -16 28
-35 32 -69 5 -42 3 -50 -25 -78 -41 -41 -83 -41 -124 0 -28 28 -30 36 -25 78
9 82 84 119 142 69z m622 8 c30 -21 44 -75 32 -120 -25 -88 -143 -88 -168 0
-20 72 20 135 84 135 17 0 40 -7 52 -15z"/>
<path d="M986 424 c-50 -50 -21 -144 44 -144 48 0 80 50 66 104 -13 53 -75 75
-110 40z"/>
</g>
</svg>
